<svg width="136" height="93" viewBox="0 0 136 93" fill="none" xmlns="http://www.w3.org/2000/svg">
<path d="M3.408 18.12H12.624L16.896 40.728L21.504 18.12H30.384L31.056 57H24.96L24.24 31.128L19.728 57H14.304L9.504 30.936L8.928 57H2.736L3.408 18.12ZM42.1489 18.12H51.9409L59.1889 57H51.2689L49.9729 48.792H44.2609L42.9169 57H34.8049L42.1489 18.12ZM49.1569 43.656L47.0929 28.488L45.0289 43.656H49.1569ZM64.5559 24.504H58.6999V18.12H79.0039V24.504H73.1959V57H64.5559V24.504ZM93.1879 57.576C88.9639 57.576 85.9559 56.472 84.1639 54.264C82.4039 52.024 81.5239 48.808 81.5239 44.616V30.6C81.5239 26.312 82.4039 23.08 84.1639 20.904C85.9239 18.696 88.9319 17.592 93.1879 17.592C97.2519 17.592 100.132 18.568 101.828 20.52C103.524 22.472 104.372 25.24 104.372 28.824V32.184H95.9719V28.296C95.9719 26.792 95.8119 25.64 95.4919 24.84C95.1719 24.04 94.4039 23.64 93.1879 23.64C91.9719 23.64 91.1719 24.072 90.7879 24.936C90.4039 25.768 90.2119 26.936 90.2119 28.44V46.728C90.2119 48.264 90.4039 49.448 90.7879 50.28C91.2039 51.08 92.0039 51.48 93.1879 51.48C94.3719 51.48 95.1239 51.08 95.4439 50.28C95.7959 49.448 95.9719 48.264 95.9719 46.728V42.648H104.372V46.008C104.372 49.656 103.524 52.504 101.828 54.552C100.132 56.568 97.2519 57.576 93.1879 57.576ZM109.243 18.12H117.835V33.864H123.835V18.12H132.475V57H123.835V40.008H117.835V57H109.243V18.12Z" fill="#3E000C"/>
<path d="M4.284 77.18C3.372 77.18 2.724 76.7 2.34 75.74C1.98 74.78 1.8 73.244 1.8 71.132C1.8 68.012 2.244 65.048 3.132 62.24C3.348 61.544 3.696 61.04 4.176 60.728C4.68 60.392 5.376 60.224 6.264 60.224C6.744 60.224 7.08 60.284 7.272 60.404C7.464 60.524 7.56 60.752 7.56 61.088C7.56 61.472 7.38 62.336 7.02 63.68C6.78 64.64 6.588 65.48 6.444 66.2C6.3 66.896 6.18 67.772 6.084 68.828C6.732 66.956 7.5 65.372 8.388 64.076C9.3 62.78 10.224 61.82 11.16 61.196C12.12 60.548 13.02 60.224 13.86 60.224C14.7 60.224 15.288 60.416 15.624 60.8C15.984 61.184 16.164 61.772 16.164 62.564C16.164 63.332 15.936 64.724 15.48 66.74C15.288 67.604 15.156 68.252 15.084 68.684C16.284 65.732 17.616 63.584 19.08 62.24C20.544 60.896 21.912 60.224 23.184 60.224C24.744 60.224 25.524 61.004 25.524 62.564C25.524 63.5 25.26 65.192 24.732 67.64C24.276 69.728 24.048 71.108 24.048 71.78C24.048 72.74 24.396 73.22 25.092 73.22C25.572 73.22 26.136 72.932 26.784 72.356C27.456 71.756 28.344 70.796 29.448 69.476C29.736 69.14 30.06 68.972 30.42 68.972C30.732 68.972 30.972 69.116 31.14 69.404C31.332 69.692 31.428 70.088 31.428 70.592C31.428 71.552 31.2 72.296 30.744 72.824C29.712 74.096 28.596 75.14 27.396 75.956C26.22 76.772 24.876 77.18 23.364 77.18C22.14 77.18 21.216 76.832 20.592 76.136C19.968 75.416 19.656 74.384 19.656 73.04C19.656 72.368 19.824 71.168 20.16 69.44C20.472 67.928 20.628 66.884 20.628 66.308C20.628 65.924 20.496 65.732 20.232 65.732C19.92 65.732 19.476 66.14 18.9 66.956C18.324 67.748 17.748 68.804 17.172 70.124C16.596 71.444 16.128 72.836 15.768 74.3C15.504 75.452 15.192 76.22 14.832 76.604C14.496 76.988 13.944 77.18 13.176 77.18C12.384 77.18 11.784 76.808 11.376 76.064C10.992 75.296 10.8 74.372 10.8 73.292C10.8 72.38 10.92 71.06 11.16 69.332C11.352 67.796 11.448 66.788 11.448 66.308C11.448 65.924 11.316 65.732 11.052 65.732C10.692 65.732 10.236 66.164 9.684 67.028C9.132 67.892 8.592 68.996 8.064 70.34C7.56 71.684 7.152 73.004 6.84 74.3C6.576 75.428 6.264 76.196 5.904 76.604C5.568 76.988 5.028 77.18 4.284 77.18ZM32.9451 77.18C31.4571 77.18 30.2691 76.64 29.3811 75.56C28.4931 74.48 28.0491 73.064 28.0491 71.312C28.0491 69.392 28.4931 67.58 29.3811 65.876C30.2691 64.148 31.4451 62.768 32.9091 61.736C34.3971 60.68 35.9691 60.152 37.6251 60.152C38.1531 60.152 38.5011 60.26 38.6691 60.476C38.8611 60.668 39.0171 61.028 39.1371 61.556C39.6411 61.46 40.1691 61.412 40.7211 61.412C41.8971 61.412 42.4851 61.832 42.4851 62.672C42.4851 63.176 42.3051 64.376 41.9451 66.272C41.3931 69.032 41.1171 70.952 41.1171 72.032C41.1171 72.392 41.2011 72.68 41.3691 72.896C41.5611 73.112 41.8011 73.22 42.0891 73.22C42.5451 73.22 43.0971 72.932 43.7451 72.356C44.3931 71.756 45.2691 70.796 46.3731 69.476C46.6611 69.14 46.9851 68.972 47.3451 68.972C47.6571 68.972 47.8971 69.116 48.0651 69.404C48.2571 69.692 48.3531 70.088 48.3531 70.592C48.3531 71.552 48.1251 72.296 47.6691 72.824C46.6851 74.048 45.6411 75.08 44.5371 75.92C43.4331 76.76 42.3651 77.18 41.3331 77.18C40.5411 77.18 39.8091 76.916 39.1371 76.388C38.4891 75.836 37.9971 75.092 37.6611 74.156C36.4131 76.172 34.8411 77.18 32.9451 77.18ZM34.2411 73.544C34.7691 73.544 35.2731 73.232 35.7531 72.608C36.2331 71.984 36.5811 71.156 36.7971 70.124L38.1291 63.5C37.1211 63.524 36.1851 63.908 35.3211 64.652C34.4811 65.372 33.8091 66.332 33.3051 67.532C32.8011 68.732 32.5491 70.004 32.5491 71.348C32.5491 72.092 32.6931 72.644 32.9811 73.004C33.2931 73.364 33.7131 73.544 34.2411 73.544ZM66.2352 68.972C66.5472 68.972 66.7872 69.116 66.9552 69.404C67.1472 69.692 67.2432 70.088 67.2432 70.592C67.2432 71.552 67.0152 72.296 66.5592 72.824C65.4792 74.144 64.3872 75.2 63.2832 75.992C62.1792 76.784 60.8712 77.18 59.3592 77.18C57.5112 77.18 56.0232 76.652 54.8952 75.596C53.7672 74.54 53.2032 73.136 53.2032 71.384C53.2032 70.448 53.6832 69.776 54.6432 69.368C55.6992 68.912 56.4552 68.432 56.9112 67.928C57.3672 67.4 57.5952 66.764 57.5952 66.02C57.5952 65.588 57.4992 65.264 57.3072 65.048C57.1392 64.832 56.9232 64.724 56.6592 64.724C56.0112 64.724 55.2912 65.192 54.4992 66.128C53.7312 67.064 53.0112 68.276 52.3392 69.764C51.6672 71.228 51.1392 72.74 50.7552 74.3C50.4912 75.428 50.1792 76.196 49.8192 76.604C49.4832 76.988 48.9432 77.18 48.1992 77.18C47.4552 77.18 46.9032 76.916 46.5432 76.388C46.2072 75.836 45.9792 74.996 45.8592 73.868C45.7392 72.74 45.6792 71.084 45.6792 68.9C45.6792 65.204 46.0512 61.352 46.7952 57.344C47.5632 53.336 48.6792 49.976 50.1432 47.264C51.6312 44.528 53.4072 43.16 55.4712 43.16C56.5752 43.16 57.4632 43.64 58.1352 44.6C58.8312 45.536 59.1792 46.76 59.1792 48.272C59.1792 50.696 58.4712 53.216 57.0552 55.832C55.6392 58.424 53.3352 61.46 50.1432 64.94C50.0712 66.188 50.0352 67.472 50.0352 68.792C51.1872 65.792 52.5072 63.62 53.9952 62.276C55.4832 60.908 56.8752 60.224 58.1712 60.224C59.3712 60.224 60.3312 60.632 61.0512 61.448C61.7952 62.264 62.1672 63.272 62.1672 64.472C62.1672 65.792 61.8312 67.004 61.1592 68.108C60.4872 69.212 59.3352 70.196 57.7032 71.06C57.7992 71.708 58.0872 72.236 58.5672 72.644C59.0712 73.028 59.6712 73.22 60.3672 73.22C61.1112 73.22 61.8312 72.932 62.5272 72.356C63.2232 71.78 64.1352 70.82 65.2632 69.476C65.5512 69.14 65.8752 68.972 66.2352 68.972ZM54.7152 46.724C54.2832 46.724 53.8032 47.348 53.2752 48.596C52.7472 49.82 52.2312 51.488 51.7272 53.6C51.2472 55.688 50.8512 57.968 50.5392 60.44C52.0272 58.688 53.2512 56.78 54.2112 54.716C55.1952 52.652 55.6872 50.78 55.6872 49.1C55.6872 48.332 55.6032 47.744 55.4352 47.336C55.2672 46.928 55.0272 46.724 54.7152 46.724ZM80.3973 68.972C80.7093 68.972 80.9493 69.116 81.1173 69.404C81.3093 69.692 81.4053 70.088 81.4053 70.592C81.4053 71.552 81.1773 72.296 80.7213 72.824C79.8333 73.904 78.5733 74.9 76.9413 75.812C75.3333 76.724 73.6053 77.18 71.7573 77.18C69.2373 77.18 67.2813 76.496 65.8893 75.128C64.4973 73.76 63.8013 71.888 63.8013 69.512C63.8013 67.856 64.1493 66.32 64.8453 64.904C65.5413 63.464 66.5013 62.324 67.7253 61.484C68.9733 60.644 70.3773 60.224 71.9373 60.224C73.3293 60.224 74.4453 60.644 75.2853 61.484C76.1253 62.3 76.5453 63.416 76.5453 64.832C76.5453 66.488 75.9453 67.916 74.7453 69.116C73.5693 70.292 71.5653 71.228 68.7333 71.924C69.3333 73.028 70.4733 73.58 72.1533 73.58C73.2333 73.58 74.4573 73.208 75.8253 72.464C77.2173 71.696 78.4173 70.7 79.4253 69.476C79.7133 69.14 80.0373 68.972 80.3973 68.972ZM71.3253 63.752C70.4373 63.752 69.6813 64.268 69.0573 65.3C68.4573 66.332 68.1573 67.58 68.1573 69.044V69.116C69.5733 68.78 70.6893 68.276 71.5053 67.604C72.3213 66.932 72.7293 66.152 72.7293 65.264C72.7293 64.808 72.5973 64.448 72.3333 64.184C72.0933 63.896 71.7573 63.752 71.3253 63.752ZM93.0181 65.156C93.5461 65.156 93.9901 65.348 94.3501 65.732C94.7341 66.092 94.9261 66.548 94.9261 67.1C94.9261 67.412 94.8541 67.748 94.7101 68.108C94.3261 68.996 93.7861 69.74 93.0901 70.34C92.3941 70.94 91.6261 71.24 90.7861 71.24C90.1141 71.24 89.5381 71 89.0581 70.52C88.6021 70.04 88.3741 69.392 88.3741 68.576C88.3741 68.12 88.3981 67.628 88.4461 67.1C88.4941 66.716 88.5181 66.452 88.5181 66.308C88.5181 66.116 88.4701 65.972 88.3741 65.876C88.3021 65.78 88.2061 65.732 88.0861 65.732C87.7501 65.732 87.2941 66.14 86.7181 66.956C86.1421 67.748 85.5661 68.804 84.9901 70.124C84.4141 71.444 83.9461 72.836 83.5861 74.3C83.3221 75.452 83.0221 76.22 82.6861 76.604C82.3501 76.988 81.7981 77.18 81.0301 77.18C80.1181 77.18 79.4701 76.7 79.0861 75.74C78.7261 74.78 78.5461 73.244 78.5461 71.132C78.5461 68.012 78.9901 65.048 79.8781 62.24C80.0941 61.544 80.4421 61.04 80.9221 60.728C81.4261 60.392 82.1221 60.224 83.0101 60.224C83.4901 60.224 83.8261 60.284 84.0181 60.404C84.2101 60.524 84.3061 60.752 84.3061 61.088C84.3061 61.472 84.1261 62.336 83.7661 63.68C83.5261 64.64 83.3341 65.48 83.1901 66.2C83.0461 66.92 82.9261 67.808 82.8301 68.864C83.6221 66.8 84.5101 65.12 85.4941 63.824C86.4781 62.528 87.4381 61.604 88.3741 61.052C89.3101 60.5 90.1621 60.224 90.9301 60.224C91.6261 60.224 92.1541 60.428 92.5141 60.836C92.8981 61.22 93.0901 61.796 93.0901 62.564C93.0901 63.02 92.9581 63.884 92.6941 65.156H93.0181Z" fill="#DA627D"/>
</svg>
